<svg width="438" height="438" viewBox="0 0 438 438" fill="none" xmlns="http://www.w3.org/2000/svg">
<path d="M79.5483 312.533V319H48.6188L32 288.053L70.7772 183.203L147.87 123.619L250.353 135.166L281.744 119L368.993 154.566L375.455 164.266L386.073 161.032L383.303 174.889L393.459 193.365L390.689 201.217L405 224.774L386.073 239.092L345.911 224.774L319.136 230.316V246.945L352.374 278.353L355.144 319L335.755 315.767L331.139 301.448L281.744 265.42L245.275 251.102L278.512 278.353L274.358 301.448L281.744 315.767V319H250.353L236.965 269.577L245.275 251.102L158.488 265.42L144.177 295.443L154.333 312.533V319H114.632L99.3985 255.259L70.7772 183.203L90.6275 269.577L66.1609 295.443L79.5483 312.533Z" fill="#E85854"/>
</svg>
